# xmcd CD database file
#
# Track frame offsets:
#	150
#	20811
#	36391
#	51671
#	76906
#	95348
#	110626
#	128803
#	143987
#	163938
#	180195
#	197238
#	213482
#	228880
#	246600
#	262893
#	284609
#	303142
#	323045
#
# Disc length: 4580 seconds
#
# Revision: 2
# Processed by: cddbd v1.5.2PL0 Copyright (c) Steve Scherf et al.
# Submitted via: CDex 1.51
#
DISCID=1a11e213
DTITLE=Bachaton I - Various Artists
DYEAR=2007
DGENRE=Merengue
TTITLE0=Mal Acostumbrado - Aventura
TTITLE1=Noche de Sexo - Aventura/Wisin y Yandel
TTITLE2=I Wanna Love You - Akon/Don Omar/Tego
TTITLE3=Cuando Se Pierde Un Amor - Aventura
TTITLE4=Los Infieles - Aventura
TTITLE5=Infieles (Remix) - Aventura fea. Frankie J
TTITLE6=Como Te Quiero - Xtreme
TTITLE7=Mami No Me Dejes - Xtreme
TTITLE8=Bendita Tu - Mana/fea. JL Guerra
TTITLE9=Please Don't Cry - Toby Love
TTITLE10=Nadie Es Mejor Que Tu - Wisin y Yandel feat. Don Omar
TTITLE11=Pam Pam Pam - Wisin Y Yandel feat. Aventura (Remix)
TTITLE12=Fui Sincero - Xtreme
TTITLE13=Mi Corazoncito - Aventura
TTITLE14=Perdedor - Aventura
TTITLE15=Me Extrañaras Mañana - Aventura
TTITLE16=Alexandra - Aventura
TTITLE17=Por Un Beso - Aventura
TTITLE18=9:15 - Aventura
EXTD=YEAR: 2007
EXTT0=
EXTT1=
EXTT2=
EXTT3=
EXTT4=
EXTT5=
EXTT6=
EXTT7=
EXTT8=
EXTT9=
EXTT10=
EXTT11=
EXTT12=
EXTT13=
EXTT14=
EXTT15=
EXTT16=
EXTT17=
EXTT18=
PLAYORDER=
